<?xml version="1.0" encoding="utf-8"?>
<!-- Generator: Adobe Illustrator 24.0.1, SVG Export Plug-In . SVG Version: 6.00 Build 0)  -->
<svg version="1.1" id="Layer_1" xmlns="http://www.w3.org/2000/svg" xmlns:xlink="http://www.w3.org/1999/xlink" x="0px" y="0px"
	 viewBox="0 0 114.1 34.6" style="enable-background:new 0 0 114.1 34.6;" xml:space="preserve">
<style type="text/css">
	.st0{enable-background:new    ;}
</style>
<g>
	<polygon points="36.2,5.9 33,0.4 39.4,0.4 	"/>
	<g class="st0">
		<path d="M1.7,8.7C2,8.4,2.6,8.1,3.3,8.1c1.4,0,2.9,1,2.9,2.8c0,1-0.4,3.1-3.2,3.1c-1.1,0-2.6-0.5-2.8-2.4h1.1
			c0.1,1,0.9,1.5,1.8,1.5C4.3,13,5,12.1,5,11c0-1.2-0.9-1.9-1.9-1.9c-0.6,0-1.2,0.3-1.6,0.8l-0.9,0l0.7-4.7h4.5v1.1H2L1.7,8.7z"/>
	</g>
</g>
<g class="st0">
	<path d="M7.5,7.2l1.8-1.8C9.4,5.2,9.7,5,9.8,5c0.3,0,0.4,0.2,0.4,0.5c0,0.2-0.2,0.4-0.4,0.5L8,7.2H7.5z"/>
</g>
<g class="st0">
	<path d="M11.5,13.8c-0.4,0-0.6-0.3-0.6-0.6c0-0.4,0.3-0.6,0.6-0.6c0.4,0,0.6,0.3,0.6,0.6C12.1,13.5,11.9,13.8,11.5,13.8z"/>
	<path d="M16.9,13.8c-0.4,0-0.6-0.3-0.6-0.6c0-0.4,0.3-0.6,0.6-0.6c0.4,0,0.6,0.3,0.6,0.6C17.5,13.5,17.3,13.8,16.9,13.8z"/>
	<path d="M22.3,13.8c-0.4,0-0.6-0.3-0.6-0.6c0-0.4,0.3-0.6,0.6-0.6c0.4,0,0.6,0.3,0.6,0.6C22.9,13.5,22.7,13.8,22.3,13.8z"/>
</g>
<g>
	<g class="st0">
		<path d="M33.8,7.5c-0.3-1.6-1.6-1.8-2.5-1.8c-1.6,0-2.9,1.2-2.9,3.5c0,2.1,0.7,3.7,2.9,3.7c0.8,0,2.1-0.4,2.5-2.4h1.2
			c-0.5,3.4-3.2,3.5-3.9,3.5c-2,0-4-1.3-4-4.7c0-2.7,1.6-4.6,4.1-4.6c2.3,0,3.5,1.4,3.7,2.9H33.8z"/>
	</g>
	<g class="st0">
		<path d="M39.3,4.8h7.2v1.1h-3v7.8h-1.2V5.9h-3V4.8z"/>
	</g>
	<g class="st0">
		<path d="M56.9,4.8H58v8.9h-1.3l-4.5-7.2h0v7.2H51V4.8h1.4l4.4,7.2h0V4.8z"/>
	</g>
	<g class="st0">
		<path d="M64.8,11.1l-0.9,2.6h-1.2L66,4.8h1.4l3.2,8.9h-1.3l-0.9-2.6H64.8z M67.9,10.1l-1.3-3.9h0l-1.4,3.9H67.9z"/>
	</g>
	<g class="st0">
		<path d="M78,9h3.9v4.8h-0.8l-0.3-1.2c-0.6,0.8-1.7,1.4-2.9,1.4c-1.5,0-2.3-0.6-2.7-1c-1.4-1.3-1.4-2.8-1.4-3.7
			c0-2.2,1.3-4.6,4.2-4.6c1.7,0,3.5,0.9,3.8,2.9h-1.2c-0.4-1.5-1.7-1.9-2.7-1.9c-1.6,0-2.9,1.3-2.9,3.6c0,1.8,0.6,3.7,3,3.7
			c0.4,0,1.2,0,1.8-0.6c0.8-0.6,1-1.4,1-2.4H78V9z"/>
	</g>
</g>
<g class="st0">
	<path d="M87.1,13.8c-0.4,0-0.6-0.3-0.6-0.6c0-0.4,0.3-0.6,0.6-0.6c0.4,0,0.6,0.3,0.6,0.6C87.8,13.5,87.5,13.8,87.1,13.8z"/>
	<path d="M92.5,13.8c-0.4,0-0.6-0.3-0.6-0.6c0-0.4,0.3-0.6,0.6-0.6c0.4,0,0.6,0.3,0.6,0.6C93.2,13.5,92.9,13.8,92.5,13.8z"/>
	<path d="M97.9,13.8c-0.4,0-0.6-0.3-0.6-0.6c0-0.4,0.3-0.6,0.6-0.6s0.6,0.3,0.6,0.6C98.6,13.5,98.3,13.8,97.9,13.8z"/>
</g>
<g>
	<g class="st0">
		<path d="M104.9,8.8c0.2,0,0.4,0,0.6,0c0.8,0,1.7-0.3,1.7-1.4c0-0.5-0.3-1.4-1.6-1.4c-1.5,0-1.6,1.3-1.7,1.9h-1.1
			c0-1.3,0.5-2.8,2.8-2.8c1.7,0,2.7,1,2.7,2.3c0,1.1-0.6,1.6-1.1,1.8v0c0.8,0.3,1.4,0.9,1.4,2c0,1.4-0.9,2.8-3.1,2.8
			c-0.6,0-1.2-0.2-1.6-0.4c-1-0.5-1.2-1.5-1.3-2.5h1.1c0,0.8,0.2,1.9,1.9,1.9c1.1,0,1.9-0.7,1.9-1.7c0-1.5-1.3-1.6-2-1.6
			c-0.2,0-0.3,0-0.5,0V8.8z"/>
	</g>
</g>
<g class="st0">
	<path d="M109.8,7.2l1.8-1.8c0.1-0.1,0.3-0.3,0.5-0.3c0.3,0,0.4,0.2,0.4,0.5c0,0.2-0.2,0.4-0.4,0.5l-1.9,1.2H109.8z"/>
</g>
<g>
	<g class="st0">
		<path d="M2.6,24.4c0.2,0,0.4,0,0.6,0c0.8,0,1.7-0.3,1.7-1.4c0-0.5-0.3-1.4-1.6-1.4c-1.5,0-1.6,1.3-1.7,1.9H0.5
			c0-1.3,0.5-2.8,2.8-2.8c1.7,0,2.7,1,2.7,2.3c0,1.1-0.6,1.6-1.1,1.8v0c0.8,0.3,1.4,0.9,1.4,2c0,1.4-0.9,2.8-3.1,2.8
			c-0.6,0-1.2-0.2-1.6-0.4c-1-0.5-1.2-1.5-1.3-2.5h1.1c0,0.8,0.2,1.9,1.9,1.9c1.1,0,1.9-0.7,1.9-1.7c0-1.5-1.3-1.6-2-1.6
			c-0.2,0-0.3,0-0.5,0V24.4z"/>
	</g>
</g>
<g class="st0">
	<path d="M7.5,22.8L9.3,21c0.1-0.1,0.3-0.3,0.5-0.3c0.3,0,0.4,0.2,0.4,0.5c0,0.2-0.2,0.4-0.4,0.5L8,22.8H7.5z"/>
</g>
<g class="st0">
	<path d="M11.5,29.4c-0.4,0-0.6-0.3-0.6-0.6c0-0.4,0.3-0.6,0.6-0.6c0.4,0,0.6,0.3,0.6,0.6C12.1,29.1,11.9,29.4,11.5,29.4z"/>
	<path d="M16.9,29.4c-0.4,0-0.6-0.3-0.6-0.6c0-0.4,0.3-0.6,0.6-0.6c0.4,0,0.6,0.3,0.6,0.6C17.5,29.1,17.3,29.4,16.9,29.4z"/>
	<path d="M22.3,29.4c-0.4,0-0.6-0.3-0.6-0.6c0-0.4,0.3-0.6,0.6-0.6c0.4,0,0.6,0.3,0.6,0.6C22.9,29.1,22.7,29.4,22.3,29.4z"/>
</g>
<g class="st0">
	<path d="M31.1,24.6H35v4.8h-0.8l-0.3-1.2c-0.6,0.8-1.7,1.4-2.9,1.4c-1.5,0-2.3-0.6-2.7-1c-1.4-1.3-1.4-2.8-1.4-3.7
		c0-2.2,1.3-4.6,4.2-4.6c1.7,0,3.5,0.9,3.8,2.9h-1.2c-0.4-1.5-1.7-1.9-2.7-1.9c-1.6,0-2.9,1.3-2.9,3.6c0,1.8,0.6,3.7,3,3.7
		c0.4,0,1.2,0,1.8-0.6c0.8-0.6,1-1.4,1-2.4h-2.8V24.6z"/>
</g>
<g class="st0">
	<path d="M41.4,26.8l-0.9,2.6h-1.2l3.3-8.9h1.4l3.2,8.9h-1.3l-0.9-2.6H41.4z M44.5,25.7l-1.3-3.9h0l-1.4,3.9H44.5z"/>
</g>
<g class="st0">
	<path d="M56.9,20.5H58v8.9h-1.3l-4.5-7.2h0v7.2H51v-8.9h1.4l4.4,7.2h0V20.5z"/>
</g>
<g class="st0">
	<path d="M62.7,20.5h7.2v1.1h-3v7.8h-1.2v-7.8h-3V20.5z"/>
</g>
<g class="st0">
	<path d="M80.7,23.1c-0.3-1.6-1.6-1.8-2.5-1.8c-1.6,0-2.9,1.2-2.9,3.5c0,2.1,0.7,3.7,2.9,3.7c0.8,0,2.1-0.4,2.5-2.4H82
		c-0.5,3.4-3.2,3.5-3.9,3.5c-2,0-4-1.3-4-4.7c0-2.7,1.6-4.6,4.1-4.6c2.3,0,3.5,1.4,3.7,2.9H80.7z"/>
</g>
<g class="st0">
	<path d="M87.1,29.4c-0.4,0-0.6-0.3-0.6-0.6c0-0.4,0.3-0.6,0.6-0.6c0.4,0,0.6,0.3,0.6,0.6C87.8,29.1,87.5,29.4,87.1,29.4z"/>
	<path d="M92.5,29.4c-0.4,0-0.6-0.3-0.6-0.6c0-0.4,0.3-0.6,0.6-0.6c0.4,0,0.6,0.3,0.6,0.6C93.2,29.1,92.9,29.4,92.5,29.4z"/>
	<path d="M97.9,29.4c-0.4,0-0.6-0.3-0.6-0.6c0-0.4,0.3-0.6,0.6-0.6s0.6,0.3,0.6,0.6C98.6,29.1,98.3,29.4,97.9,29.4z"/>
</g>
<g class="st0">
	<path d="M104.7,24.3c0.4-0.3,0.9-0.5,1.7-0.5c1.4,0,2.9,1,2.9,2.8c0,1-0.4,3.1-3.2,3.1c-1.1,0-2.6-0.5-2.8-2.4h1.1
		c0.1,1,0.9,1.5,1.8,1.5c1.1,0,1.8-0.9,1.8-2c0-1.2-0.9-1.9-1.9-1.9c-0.6,0-1.2,0.3-1.6,0.8l-0.9,0l0.7-4.7h4.5v1.1h-3.7L104.7,24.3
		z"/>
</g>
<g class="st0">
	<path d="M110.5,22.8l1.8-1.8c0.1-0.1,0.3-0.3,0.5-0.3c0.3,0,0.4,0.2,0.4,0.5c0,0.2-0.2,0.4-0.4,0.5l-1.9,1.2H110.5z"/>
</g>
<g>
	<polygon points="68.5,34.4 71.7,28.9 74.9,34.4 	"/>
</g>
</svg>
