<?xml version="1.0" encoding="utf-8"?>
<!-- Generator: Adobe Illustrator 24.0.1, SVG Export Plug-In . SVG Version: 6.00 Build 0)  -->
<svg version="1.1" id="Layer_1" xmlns="http://www.w3.org/2000/svg" xmlns:xlink="http://www.w3.org/1999/xlink" x="0px" y="0px"
	 viewBox="0 0 101.8 34.6" style="enable-background:new 0 0 101.8 34.6;" xml:space="preserve">
<style type="text/css">
	.st0{enable-background:new    ;}
</style>
<g>
	<g class="st0">
		<path d="M1.5,8.6c0.4-0.3,0.9-0.5,1.7-0.5c1.4,0,2.9,1,2.9,2.8c0,1-0.4,3.1-3.2,3.1c-1.1,0-2.6-0.5-2.8-2.4h1.1
			C1.3,12.5,2.1,13,3,13c1.1,0,1.8-0.9,1.8-2c0-1.2-0.9-1.9-1.9-1.9c-0.6,0-1.2,0.3-1.6,0.8l-0.9,0l0.7-4.7h4.5v1.1H1.9L1.5,8.6z"/>
	</g>
</g>
<g class="st0">
	<path d="M7.3,7.1l1.8-1.8C9.3,5.2,9.5,5,9.7,5c0.3,0,0.4,0.2,0.4,0.5c0,0.2-0.2,0.4-0.4,0.5L7.8,7.1H7.3z"/>
</g>
<g class="st0">
	<path d="M11.4,13.8c-0.4,0-0.6-0.3-0.6-0.6c0-0.4,0.3-0.6,0.6-0.6c0.4,0,0.6,0.3,0.6,0.6C12,13.5,11.7,13.8,11.4,13.8z"/>
	<path d="M16.7,13.8c-0.4,0-0.6-0.3-0.6-0.6c0-0.4,0.3-0.6,0.6-0.6c0.4,0,0.6,0.3,0.6,0.6C17.4,13.5,17.1,13.8,16.7,13.8z"/>
	<path d="M22.1,13.8c-0.4,0-0.6-0.3-0.6-0.6c0-0.4,0.3-0.6,0.6-0.6c0.4,0,0.6,0.3,0.6,0.6C22.8,13.5,22.5,13.8,22.1,13.8z"/>
</g>
<g>
	<g class="st0">
		<path d="M30.9,8.9h3.9v4.8H34l-0.3-1.2c-0.6,0.8-1.7,1.4-2.9,1.4c-1.5,0-2.3-0.6-2.7-1c-1.4-1.3-1.4-2.8-1.4-3.7
			c0-2.2,1.3-4.6,4.2-4.6c1.7,0,3.5,0.9,3.8,2.9h-1.2c-0.4-1.5-1.7-1.9-2.7-1.9c-1.6,0-2.9,1.3-2.9,3.6c0,1.8,0.6,3.7,3,3.7
			c0.4,0,1.2,0,1.8-0.6c0.8-0.6,1-1.4,1-2.4h-2.8V8.9z"/>
	</g>
	<g class="st0">
		<path d="M41.2,11.1l-0.9,2.6h-1.2l3.3-8.9h1.4l3.2,8.9h-1.3l-0.9-2.6H41.2z M44.4,10L43,6.1h0L41.6,10H44.4z"/>
	</g>
	<g class="st0">
		<path d="M49.6,4.8h7.2v1.1h-3v7.8h-1.2V5.9h-3V4.8z"/>
	</g>
	<g class="st0">
		<path d="M67.6,7.5c-0.3-1.6-1.6-1.8-2.5-1.8c-1.6,0-2.9,1.2-2.9,3.5c0,2.1,0.7,3.7,2.9,3.7c0.8,0,2.1-0.4,2.5-2.4h1.2
			c-0.5,3.4-3.2,3.5-3.9,3.5c-2,0-4-1.3-4-4.7c0-2.7,1.6-4.6,4.1-4.6c2.3,0,3.5,1.4,3.7,2.9H67.6z"/>
	</g>
</g>
<g class="st0">
	<path d="M73.9,13.8c-0.4,0-0.6-0.3-0.6-0.6c0-0.4,0.3-0.6,0.6-0.6c0.4,0,0.6,0.3,0.6,0.6C74.6,13.5,74.3,13.8,73.9,13.8z"/>
	<path d="M79.3,13.8c-0.4,0-0.6-0.3-0.6-0.6c0-0.4,0.3-0.6,0.6-0.6s0.6,0.3,0.6,0.6C80,13.5,79.7,13.8,79.3,13.8z"/>
	<path d="M84.7,13.8c-0.4,0-0.6-0.3-0.6-0.6c0-0.4,0.3-0.6,0.6-0.6s0.6,0.3,0.6,0.6C85.4,13.5,85.1,13.8,84.7,13.8z"/>
</g>
<g>
	<g class="st0">
		<path d="M91.7,8.7c0.2,0,0.4,0,0.6,0c0.8,0,1.7-0.3,1.7-1.4c0-0.5-0.3-1.4-1.6-1.4c-1.5,0-1.6,1.3-1.7,1.9h-1.1
			c0-1.3,0.5-2.8,2.8-2.8C94,5,95,5.9,95,7.3c0,1.1-0.6,1.6-1.1,1.8v0c0.8,0.3,1.4,0.9,1.4,2c0,1.4-0.9,2.8-3.1,2.8
			c-0.6,0-1.2-0.2-1.6-0.4c-1-0.5-1.2-1.5-1.3-2.5h1.1c0,0.8,0.2,1.9,1.9,1.9c1.1,0,1.9-0.7,1.9-1.7c0-1.5-1.3-1.6-2-1.6
			c-0.2,0-0.3,0-0.5,0V8.7z"/>
	</g>
</g>
<g class="st0">
	<path d="M96.6,7.1l1.8-1.8C98.5,5.2,98.7,5,98.9,5c0.3,0,0.4,0.2,0.4,0.5c0,0.2-0.2,0.4-0.4,0.5l-1.9,1.2H96.6z"/>
</g>
<g>
	<g class="st0">
		<path d="M2.5,24.4c0.2,0,0.4,0,0.6,0c0.8,0,1.7-0.3,1.7-1.4c0-0.5-0.3-1.4-1.6-1.4c-1.5,0-1.6,1.3-1.7,1.9H0.3
			c0-1.3,0.5-2.8,2.8-2.8c1.7,0,2.7,1,2.7,2.3c0,1.1-0.6,1.6-1.1,1.8v0c0.8,0.3,1.4,0.9,1.4,2c0,1.4-0.9,2.8-3.1,2.8
			c-0.6,0-1.2-0.2-1.6-0.4c-1-0.5-1.2-1.5-1.3-2.5h1.1c0,0.8,0.2,1.9,1.9,1.9c1.1,0,1.9-0.7,1.9-1.7c0-1.5-1.3-1.6-2-1.6
			c-0.2,0-0.3,0-0.5,0V24.4z"/>
	</g>
</g>
<g class="st0">
	<path d="M7.3,22.7l1.8-1.8c0.1-0.1,0.3-0.3,0.5-0.3c0.3,0,0.4,0.2,0.4,0.5c0,0.2-0.2,0.4-0.4,0.5l-1.9,1.2H7.3z"/>
</g>
<g class="st0">
	<path d="M11.4,29.4c-0.4,0-0.6-0.3-0.6-0.6c0-0.4,0.3-0.6,0.6-0.6c0.4,0,0.6,0.3,0.6,0.6C12,29.1,11.7,29.4,11.4,29.4z"/>
	<path d="M16.7,29.4c-0.4,0-0.6-0.3-0.6-0.6c0-0.4,0.3-0.6,0.6-0.6c0.4,0,0.6,0.3,0.6,0.6C17.4,29.1,17.1,29.4,16.7,29.4z"/>
	<path d="M22.1,29.4c-0.4,0-0.6-0.3-0.6-0.6c0-0.4,0.3-0.6,0.6-0.6c0.4,0,0.6,0.3,0.6,0.6C22.8,29.1,22.5,29.4,22.1,29.4z"/>
</g>
<g class="st0">
	<path d="M33.7,23.1c-0.3-1.6-1.6-1.8-2.5-1.8c-1.6,0-2.9,1.2-2.9,3.5c0,2.1,0.7,3.7,2.9,3.7c0.8,0,2.1-0.4,2.5-2.4h1.2
		c-0.5,3.4-3.2,3.5-3.9,3.5c-2,0-4-1.3-4-4.7c0-2.7,1.6-4.6,4.1-4.6c2.3,0,3.5,1.4,3.7,2.9H33.7z"/>
</g>
<g class="st0">
	<path d="M39.2,20.4h7.2v1.1h-3v7.8h-1.2v-7.8h-3V20.4z"/>
</g>
<g class="st0">
	<path d="M51.6,26.7l-0.9,2.6h-1.2l3.3-8.9h1.4l3.2,8.9h-1.3l-0.9-2.6H51.6z M54.8,25.7l-1.3-3.9h0L52,25.7H54.8z"/>
</g>
<g class="st0">
	<path d="M64.8,24.6h3.9v4.8h-0.8l-0.3-1.2c-0.6,0.8-1.7,1.4-2.9,1.4c-1.5,0-2.3-0.6-2.7-1c-1.4-1.3-1.4-2.8-1.4-3.7
		c0-2.2,1.3-4.6,4.2-4.6c1.7,0,3.5,0.9,3.8,2.9h-1.2c-0.4-1.5-1.7-1.9-2.7-1.9c-1.6,0-2.9,1.3-2.9,3.6c0,1.8,0.6,3.7,3,3.7
		c0.4,0,1.2,0,1.8-0.6c0.8-0.6,1-1.4,1-2.4h-2.8V24.6z"/>
</g>
<g class="st0">
	<path d="M73.9,29.4c-0.4,0-0.6-0.3-0.6-0.6c0-0.4,0.3-0.6,0.6-0.6c0.4,0,0.6,0.3,0.6,0.6C74.6,29.1,74.3,29.4,73.9,29.4z"/>
	<path d="M79.3,29.4c-0.4,0-0.6-0.3-0.6-0.6c0-0.4,0.3-0.6,0.6-0.6s0.6,0.3,0.6,0.6C80,29.1,79.7,29.4,79.3,29.4z"/>
	<path d="M84.7,29.4c-0.4,0-0.6-0.3-0.6-0.6c0-0.4,0.3-0.6,0.6-0.6s0.6,0.3,0.6,0.6C85.4,29.1,85.1,29.4,84.7,29.4z"/>
</g>
<g class="st0">
	<path d="M91.5,24.2c0.4-0.3,0.9-0.5,1.7-0.5c1.4,0,2.9,1,2.9,2.8c0,1-0.4,3.1-3.2,3.1c-1.1,0-2.6-0.5-2.8-2.4h1.1
		c0.1,1,0.9,1.5,1.8,1.5c1.1,0,1.8-0.9,1.8-2c0-1.2-0.9-1.9-1.9-1.9c-0.6,0-1.2,0.3-1.6,0.8l-0.9,0l0.7-4.7h4.5v1.1h-3.7L91.5,24.2z
		"/>
</g>
<g class="st0">
	<path d="M97.4,22.7l1.8-1.8c0.1-0.1,0.3-0.3,0.5-0.3c0.3,0,0.4,0.2,0.4,0.5c0,0.2-0.2,0.4-0.4,0.5l-1.9,1.2H97.4z"/>
</g>
<g>
	<polygon points="25,6 21.8,0.5 28.2,0.5 	"/>
	<polygon points="68.3,34.2 71.5,28.7 74.7,34.2 	"/>
</g>
</svg>
