<?xml version="1.0" encoding="utf-8"?>
<!-- Generator: Adobe Illustrator 24.0.1, SVG Export Plug-In . SVG Version: 6.00 Build 0)  -->
<svg version="1.1" id="Layer_1" xmlns="http://www.w3.org/2000/svg" xmlns:xlink="http://www.w3.org/1999/xlink" x="0px" y="0px"
	 viewBox="0 0 115.7 34.6" style="enable-background:new 0 0 115.7 34.6;" xml:space="preserve">
<style type="text/css">
	.st0{enable-background:new    ;}
</style>
<g>
	<g class="st0">
		<path d="M2,8.6C2.4,8.3,2.9,8,3.7,8c1.4,0,2.9,1,2.9,2.8c0,1-0.4,3.1-3.2,3.1c-1.1,0-2.6-0.5-2.8-2.4h1.1c0.1,1,0.9,1.5,1.8,1.5
			c1.1,0,1.8-0.9,1.8-2C5.4,9.7,4.6,9,3.5,9C2.8,9,2.3,9.3,1.9,9.8l-0.9,0l0.7-4.7h4.5v1.1H2.4L2,8.6z"/>
	</g>
	<g class="st0">
		<path d="M7.9,7.1l1.8-1.8c0.1-0.1,0.3-0.3,0.5-0.3c0.3,0,0.4,0.2,0.4,0.5c0,0.2-0.2,0.4-0.4,0.5L8.3,7.1H7.9z"/>
	</g>
</g>
<g class="st0">
	<path d="M11.9,13.7c-0.4,0-0.6-0.3-0.6-0.6c0-0.4,0.3-0.6,0.6-0.6c0.4,0,0.6,0.3,0.6,0.6C12.5,13.4,12.3,13.7,11.9,13.7z"/>
	<path d="M17.3,13.7c-0.4,0-0.6-0.3-0.6-0.6c0-0.4,0.3-0.6,0.6-0.6c0.4,0,0.6,0.3,0.6,0.6C17.9,13.4,17.6,13.7,17.3,13.7z"/>
	<path d="M22.7,13.7c-0.4,0-0.6-0.3-0.6-0.6c0-0.4,0.3-0.6,0.6-0.6c0.4,0,0.6,0.3,0.6,0.6C23.3,13.4,23,13.7,22.7,13.7z"/>
</g>
<g>
	<g class="st0">
		<path d="M32.7,8.9h3.9v4.8h-0.8l-0.3-1.2c-0.6,0.8-1.7,1.4-2.9,1.4c-1.5,0-2.3-0.6-2.7-1c-1.4-1.3-1.4-2.8-1.4-3.7
			c0-2.2,1.3-4.6,4.2-4.6c1.7,0,3.5,0.9,3.8,2.9h-1.2c-0.4-1.5-1.7-1.9-2.7-1.9c-1.6,0-2.9,1.3-2.9,3.6c0,1.8,0.6,3.7,3,3.7
			c0.4,0,1.2,0,1.8-0.6c0.8-0.6,1-1.4,1-2.4h-2.8V8.9z"/>
	</g>
	<g class="st0">
		<path d="M42.7,11l-0.9,2.6h-1.2l3.3-8.9h1.4l3.2,8.9h-1.3L46.2,11H42.7z M45.8,10l-1.3-3.9h0L43,10H45.8z"/>
	</g>
	<g class="st0">
		<path d="M58.5,4.7h1.2v8.9h-1.3l-4.5-7.2h0v7.2h-1.2V4.7h1.4l4.4,7.2h0V4.7z"/>
	</g>
	<g class="st0">
		<path d="M64.3,4.7h7.2v1.1h-3v7.8h-1.2V5.8h-3V4.7z"/>
	</g>
	<g class="st0">
		<path d="M82.3,7.4c-0.3-1.6-1.6-1.8-2.5-1.8c-1.6,0-2.9,1.2-2.9,3.5c0,2.1,0.7,3.7,2.9,3.7c0.8,0,2.1-0.4,2.5-2.4h1.2
			c-0.5,3.4-3.2,3.5-3.9,3.5c-2,0-4-1.3-4-4.7c0-2.7,1.6-4.6,4.1-4.6c2.3,0,3.5,1.4,3.7,2.9H82.3z"/>
	</g>
</g>
<g class="st0">
	<path d="M88.8,13.7c-0.4,0-0.6-0.3-0.6-0.6c0-0.4,0.3-0.6,0.6-0.6s0.6,0.3,0.6,0.6C89.4,13.4,89.2,13.7,88.8,13.7z"/>
	<path d="M94.2,13.7c-0.4,0-0.6-0.3-0.6-0.6c0-0.4,0.3-0.6,0.6-0.6s0.6,0.3,0.6,0.6C94.8,13.4,94.6,13.7,94.2,13.7z"/>
	<path d="M99.6,13.7c-0.4,0-0.6-0.3-0.6-0.6c0-0.4,0.3-0.6,0.6-0.6c0.4,0,0.6,0.3,0.6,0.6C100.2,13.4,100,13.7,99.6,13.7z"/>
</g>
<g>
	<g class="st0">
		<path d="M106.5,8.7c0.2,0,0.4,0,0.6,0c0.8,0,1.7-0.3,1.7-1.4c0-0.5-0.3-1.4-1.6-1.4c-1.5,0-1.6,1.3-1.7,1.9h-1.1
			c0-1.3,0.5-2.8,2.8-2.8c1.7,0,2.7,1,2.7,2.3c0,1.1-0.6,1.6-1.1,1.8v0c0.8,0.3,1.4,0.9,1.4,2c0,1.4-0.9,2.8-3.1,2.8
			c-0.6,0-1.2-0.2-1.6-0.4c-1-0.5-1.2-1.5-1.3-2.5h1.1c0,0.8,0.2,1.9,1.9,1.9c1.1,0,1.9-0.7,1.9-1.7c0-1.5-1.3-1.6-2-1.6
			c-0.2,0-0.3,0-0.5,0V8.7z"/>
	</g>
	<g class="st0">
		<path d="M111.4,7.1l1.8-1.8c0.1-0.1,0.3-0.3,0.5-0.3c0.3,0,0.4,0.2,0.4,0.5c0,0.2-0.2,0.4-0.4,0.5l-1.9,1.2H111.4z"/>
	</g>
	<g class="st0">
		<path d="M3,24.3c0.2,0,0.4,0,0.6,0c0.8,0,1.7-0.3,1.7-1.4c0-0.5-0.3-1.4-1.6-1.4c-1.5,0-1.6,1.3-1.7,1.9H0.8
			c0-1.3,0.5-2.8,2.8-2.8c1.7,0,2.7,1,2.7,2.3c0,1.1-0.6,1.6-1.1,1.8v0c0.8,0.3,1.4,0.9,1.4,2c0,1.4-0.9,2.8-3.1,2.8
			c-0.6,0-1.2-0.2-1.6-0.4c-1-0.5-1.2-1.5-1.3-2.5h1.1c0,0.8,0.2,1.9,1.9,1.9c1.1,0,1.9-0.7,1.9-1.7c0-1.5-1.3-1.6-2-1.6
			c-0.2,0-0.3,0-0.5,0V24.3z"/>
	</g>
</g>
<g class="st0">
	<path d="M7.9,22.7l1.8-1.8c0.1-0.1,0.3-0.3,0.5-0.3c0.3,0,0.4,0.2,0.4,0.5c0,0.2-0.2,0.4-0.4,0.5l-1.9,1.2H7.9z"/>
</g>
<g class="st0">
	<path d="M11.9,29.3c-0.4,0-0.6-0.3-0.6-0.6c0-0.4,0.3-0.6,0.6-0.6c0.4,0,0.6,0.3,0.6,0.6C12.5,29,12.3,29.3,11.9,29.3z"/>
	<path d="M17.3,29.3c-0.4,0-0.6-0.3-0.6-0.6c0-0.4,0.3-0.6,0.6-0.6c0.4,0,0.6,0.3,0.6,0.6C17.9,29,17.6,29.3,17.3,29.3z"/>
	<path d="M22.7,29.3c-0.4,0-0.6-0.3-0.6-0.6c0-0.4,0.3-0.6,0.6-0.6c0.4,0,0.6,0.3,0.6,0.6C23.3,29,23,29.3,22.7,29.3z"/>
</g>
<g class="st0">
	<path d="M35.5,23c-0.3-1.6-1.6-1.8-2.5-1.8c-1.6,0-2.9,1.2-2.9,3.5c0,2.1,0.7,3.7,2.9,3.7c0.8,0,2.1-0.4,2.5-2.4h1.2
		c-0.5,3.4-3.2,3.5-3.9,3.5c-2,0-4-1.3-4-4.7c0-2.7,1.6-4.6,4.1-4.6c2.3,0,3.5,1.4,3.7,2.9H35.5z"/>
</g>
<g class="st0">
	<path d="M40.9,20.4h7.2v1.1h-3v7.8h-1.2v-7.8h-3V20.4z"/>
</g>
<g class="st0">
	<path d="M58.5,20.4h1.2v8.9h-1.3l-4.5-7.2h0v7.2h-1.2v-8.9h1.4l4.4,7.2h0V20.4z"/>
</g>
<g class="st0">
	<path d="M66.2,26.7l-0.9,2.6H64l3.3-8.9h1.4l3.2,8.9h-1.3l-0.9-2.6H66.2z M69.3,25.6L68,21.7h0l-1.4,3.9H69.3z"/>
</g>
<g class="st0">
	<path d="M79.6,24.5h3.9v4.8h-0.8l-0.3-1.2c-0.6,0.8-1.7,1.4-2.9,1.4c-1.5,0-2.3-0.6-2.7-1c-1.4-1.3-1.4-2.8-1.4-3.7
		c0-2.2,1.3-4.6,4.2-4.6c1.7,0,3.5,0.9,3.8,2.9h-1.2c-0.4-1.5-1.7-1.9-2.7-1.9c-1.6,0-2.9,1.3-2.9,3.6c0,1.8,0.6,3.7,3,3.7
		c0.4,0,1.2,0,1.8-0.6c0.8-0.6,1-1.4,1-2.4h-2.8V24.5z"/>
</g>
<g class="st0">
	<path d="M88.8,29.3c-0.4,0-0.6-0.3-0.6-0.6c0-0.4,0.3-0.6,0.6-0.6s0.6,0.3,0.6,0.6C89.4,29,89.2,29.3,88.8,29.3z"/>
	<path d="M94.2,29.3c-0.4,0-0.6-0.3-0.6-0.6c0-0.4,0.3-0.6,0.6-0.6s0.6,0.3,0.6,0.6C94.8,29,94.6,29.3,94.2,29.3z"/>
	<path d="M99.6,29.3c-0.4,0-0.6-0.3-0.6-0.6c0-0.4,0.3-0.6,0.6-0.6c0.4,0,0.6,0.3,0.6,0.6C100.2,29,100,29.3,99.6,29.3z"/>
</g>
<g class="st0">
	<path d="M106.4,24.2c0.4-0.3,0.9-0.5,1.7-0.5c1.4,0,2.9,1,2.9,2.8c0,1-0.4,3.1-3.2,3.1c-1.1,0-2.6-0.5-2.8-2.4h1.1
		c0.1,1,0.9,1.5,1.8,1.5c1.1,0,1.8-0.9,1.8-2c0-1.2-0.9-1.9-1.9-1.9c-0.6,0-1.2,0.3-1.6,0.8l-0.9,0l0.7-4.7h4.5v1.1h-3.7L106.4,24.2
		z"/>
</g>
<g class="st0">
	<path d="M112.2,22.7l1.8-1.8c0.1-0.1,0.3-0.3,0.5-0.3c0.3,0,0.4,0.2,0.4,0.5c0,0.2-0.2,0.4-0.4,0.5l-1.9,1.2H112.2z"/>
</g>
<g>
	<polygon points="40.1,6 36.9,0.5 43.4,0.5 	"/>
	<polygon points="71.2,34.4 74.4,28.8 77.6,34.4 	"/>
</g>
</svg>
