<?xml version="1.0" encoding="utf-8"?>
<!-- Generator: Adobe Illustrator 24.0.1, SVG Export Plug-In . SVG Version: 6.00 Build 0)  -->
<svg version="1.1" id="Layer_1" xmlns="http://www.w3.org/2000/svg" xmlns:xlink="http://www.w3.org/1999/xlink" x="0px" y="0px"
	 viewBox="0 0 103.7 34.6" style="enable-background:new 0 0 103.7 34.6;" xml:space="preserve">
<style type="text/css">
	.st0{enable-background:new    ;}
</style>
<g>
	<g class="st0">
		<path d="M1.8,8.9c0.4-0.3,0.9-0.5,1.7-0.5c1.4,0,2.9,1,2.9,2.8c0,1-0.4,3.1-3.2,3.1c-1.1,0-2.6-0.5-2.8-2.4h1.1
			c0.1,1,0.9,1.5,1.8,1.5c1.1,0,1.8-0.9,1.8-2c0-1.2-0.9-1.9-1.9-1.9c-0.6,0-1.2,0.3-1.6,0.8l-0.9,0l0.7-4.7h4.5v1.1H2.2L1.8,8.9z"
			/>
	</g>
	<g class="st0">
		<path d="M7.6,7.4l1.8-1.8C9.6,5.5,9.8,5.3,10,5.3c0.3,0,0.4,0.2,0.4,0.5c0,0.2-0.2,0.4-0.4,0.5L8.1,7.4H7.6z"/>
	</g>
</g>
<g class="st0">
	<path d="M11.7,14c-0.4,0-0.6-0.3-0.6-0.6c0-0.4,0.3-0.6,0.6-0.6c0.4,0,0.6,0.3,0.6,0.6C12.3,13.8,12,14,11.7,14z"/>
	<path d="M17.1,14c-0.4,0-0.6-0.3-0.6-0.6c0-0.4,0.3-0.6,0.6-0.6c0.4,0,0.6,0.3,0.6,0.6C17.7,13.8,17.4,14,17.1,14z"/>
	<path d="M22.5,14c-0.4,0-0.6-0.3-0.6-0.6c0-0.4,0.3-0.6,0.6-0.6c0.4,0,0.6,0.3,0.6,0.6C23.1,13.8,22.8,14,22.5,14z"/>
</g>
<g class="st0">
	<path d="M27.7,5.1h7.2v1.1h-3V14h-1.2V6.1h-3V5.1z"/>
</g>
<g class="st0">
	<path d="M39.4,5.1h7.2v1.1h-3V14h-1.2V6.1h-3V5.1z"/>
</g>
<g class="st0">
	<path d="M52.8,11.4L51.9,14h-1.2L54,5.1h1.4l3.2,8.9h-1.3l-0.9-2.6H52.8z M56,10.3l-1.3-3.9h0l-1.4,3.9H56z"/>
</g>
<g class="st0">
	<path d="M64.6,11.4L63.7,14h-1.2l3.3-8.9h1.4l3.2,8.9h-1.3l-0.9-2.6H64.6z M67.8,10.3l-1.3-3.9h0L65,10.3H67.8z"/>
</g>
<g class="st0">
	<path d="M75.6,14c-0.4,0-0.6-0.3-0.6-0.6c0-0.4,0.3-0.6,0.6-0.6c0.4,0,0.6,0.3,0.6,0.6C76.2,13.8,75.9,14,75.6,14z"/>
	<path d="M81,14c-0.4,0-0.6-0.3-0.6-0.6c0-0.4,0.3-0.6,0.6-0.6s0.6,0.3,0.6,0.6C81.6,13.8,81.3,14,81,14z"/>
	<path d="M86.3,14c-0.4,0-0.6-0.3-0.6-0.6c0-0.4,0.3-0.6,0.6-0.6s0.6,0.3,0.6,0.6C87,13.8,86.7,14,86.3,14z"/>
</g>
<g class="st0">
	<path d="M93.3,9c0.2,0,0.4,0,0.6,0c0.8,0,1.7-0.3,1.7-1.4c0-0.5-0.3-1.4-1.6-1.4c-1.5,0-1.6,1.3-1.7,1.9h-1.1
		c0-1.3,0.5-2.8,2.8-2.8c1.7,0,2.7,1,2.7,2.3c0,1.1-0.6,1.6-1.1,1.8v0c0.8,0.3,1.4,0.9,1.4,2c0,1.4-0.9,2.8-3.1,2.8
		c-0.6,0-1.2-0.2-1.6-0.4c-1-0.5-1.2-1.5-1.3-2.5h1.1c0,0.8,0.2,1.9,1.9,1.9c1.1,0,1.9-0.7,1.9-1.7c0-1.5-1.3-1.6-2-1.6
		c-0.2,0-0.3,0-0.5,0V9z"/>
</g>
<g>
	<g class="st0">
		<path d="M98.2,7.4l1.8-1.8c0.1-0.1,0.3-0.3,0.5-0.3c0.3,0,0.4,0.2,0.4,0.5c0,0.2-0.2,0.4-0.4,0.5l-1.9,1.2H98.2z"/>
	</g>
	<g class="st0">
		<path d="M2.8,24.6c0.2,0,0.4,0,0.6,0c0.8,0,1.7-0.3,1.7-1.4c0-0.5-0.3-1.4-1.6-1.4c-1.5,0-1.6,1.3-1.7,1.9H0.6
			c0-1.3,0.5-2.8,2.8-2.8c1.7,0,2.7,1,2.7,2.3c0,1.1-0.6,1.6-1.1,1.8v0c0.8,0.3,1.4,0.9,1.4,2c0,1.4-0.9,2.8-3.1,2.8
			c-0.6,0-1.2-0.2-1.6-0.4c-1-0.5-1.2-1.5-1.3-2.5h1.1c0,0.8,0.2,1.9,1.9,1.9c1.1,0,1.9-0.7,1.9-1.7c0-1.5-1.3-1.6-2-1.6
			c-0.2,0-0.3,0-0.5,0V24.6z"/>
	</g>
</g>
<g class="st0">
	<path d="M7.6,23l1.8-1.8c0.1-0.1,0.3-0.3,0.5-0.3c0.3,0,0.4,0.2,0.4,0.5c0,0.2-0.2,0.4-0.4,0.5L8.1,23H7.6z"/>
</g>
<g class="st0">
	<path d="M11.7,29.7c-0.4,0-0.6-0.3-0.6-0.6c0-0.4,0.3-0.6,0.6-0.6c0.4,0,0.6,0.3,0.6,0.6C12.3,29.4,12,29.7,11.7,29.7z"/>
	<path d="M17.1,29.7c-0.4,0-0.6-0.3-0.6-0.6c0-0.4,0.3-0.6,0.6-0.6c0.4,0,0.6,0.3,0.6,0.6C17.7,29.4,17.4,29.7,17.1,29.7z"/>
	<path d="M22.5,29.7c-0.4,0-0.6-0.3-0.6-0.6c0-0.4,0.3-0.6,0.6-0.6c0.4,0,0.6,0.3,0.6,0.6C23.1,29.4,22.8,29.7,22.5,29.7z"/>
</g>
<g class="st0">
	<path d="M29.4,27l-0.9,2.6h-1.2l3.3-8.9H32l3.2,8.9h-1.3L33,27H29.4z M32.6,25.9L31.3,22h0l-1.4,3.9H32.6z"/>
</g>
<g class="st0">
	<path d="M41.1,27l-0.9,2.6H39l3.3-8.9h1.4l3.2,8.9h-1.3L44.7,27H41.1z M44.3,25.9L43,22h0l-1.4,3.9H44.3z"/>
</g>
<g class="st0">
	<path d="M51.1,20.7h7.2v1.1h-3v7.8h-1.2v-7.8h-3V20.7z"/>
</g>
<g class="st0">
	<path d="M62.8,20.7H70v1.1h-3v7.8h-1.2v-7.8h-3V20.7z"/>
</g>
<g class="st0">
	<path d="M75.6,29.7c-0.4,0-0.6-0.3-0.6-0.6c0-0.4,0.3-0.6,0.6-0.6c0.4,0,0.6,0.3,0.6,0.6C76.2,29.4,75.9,29.7,75.6,29.7z"/>
	<path d="M81,29.7c-0.4,0-0.6-0.3-0.6-0.6c0-0.4,0.3-0.6,0.6-0.6s0.6,0.3,0.6,0.6C81.6,29.4,81.3,29.7,81,29.7z"/>
	<path d="M86.3,29.7c-0.4,0-0.6-0.3-0.6-0.6c0-0.4,0.3-0.6,0.6-0.6S87,28.7,87,29C87,29.4,86.7,29.7,86.3,29.7z"/>
</g>
<g class="st0">
	<path d="M93.1,24.5c0.4-0.3,0.9-0.5,1.7-0.5c1.4,0,2.9,1,2.9,2.8c0,1-0.4,3.1-3.2,3.1c-1.1,0-2.6-0.5-2.8-2.4h1.1
		c0.1,1,0.9,1.5,1.8,1.5c1.1,0,1.8-0.9,1.8-2c0-1.2-0.9-1.9-1.9-1.9c-0.6,0-1.2,0.3-1.6,0.8l-0.9,0l0.7-4.7h4.5v1.1h-3.7L93.1,24.5z
		"/>
</g>
<g class="st0">
	<path d="M99,23l1.8-1.8c0.1-0.1,0.3-0.3,0.5-0.3c0.3,0,0.4,0.2,0.4,0.5c0,0.2-0.2,0.4-0.4,0.5L99.5,23H99z"/>
</g>
<g>
	<polygon points="37,6.1 33.8,0.6 40.2,0.6 	"/>
	<polygon points="57.6,34.2 60.8,28.7 64,34.2 	"/>
</g>
</svg>
